<svg xmlns="http://www.w3.org/2000/svg" viewBox="0 0 250.6 403.02" width="251" height="403">
  <path d="M152.68,369.47a8.67,8.67,0,0,1,.65-2.43c.12-3.61,2.26-7.21-1-8.08s-2.3,7.84-8.36,7.66c-1.41-.09-2.46.57-3.06,2.82l-1.81,6.76-.7,2.6c-1.41,5.26,1.87,5.61,7.25,7s11.33,1.53,12.75-3.74l1.33-5C161.14,372,157.89,370.82,152.68,369.47Zm5.55,8.5-.86,3.2c-1.28,4.79-6.66,4.72-11.37,3.46s-7.43-1.5-6.14-6.29l1.77-6.61a3.69,3.69,0,0,1,3.41-3c5.31.11,5.25-7.62,7.15-7.21,1.16.25-.28,3.13-.41,6.41a10.09,10.09,0,0,0-.65,2.43C155.7,371.54,159.49,373.29,158.23,378ZM115.9,52.55l8.61,2.31,2.31-8.61-8.61-2.31Zm4.41-5,2.87.77-.77,2.87-2.87-.77Zm28.13-1.69,8.61,2.31,2.31-8.61-8.61-2.31Zm4.41-5,2.87.77L155,44.56l-2.87-.77ZM135.48,2.44l-2.87-.77-2.31,8.61,2.87.77Zm9.12,57.8,8.61,2.31,2.31-8.61-8.61-2.31Zm4.41-5,2.87.77-.77,2.87-2.87-.77Zm7.9-40.94h0l-.77,2.87ZM172,303a23.27,23.27,0,1,0,23.27,23.27A23.27,23.27,0,0,0,172,303Zm0,2.12a21.16,21.16,0,0,1,21.16,21.13h-16.9v.57l-2.76,7.86-3.62-25.33h-2.12l.07.5L164,326.25H150.83A21.16,21.16,0,0,1,172,305.11Zm0,42.31a21.16,21.16,0,0,1-21.05-19.05h14.7l2.94-13.25L172,339l2,0v0h.16l0-.28,4.27-10.29H193A21.16,21.16,0,0,1,172,347.43Zm46.2,12.84c-.26-.45-7.77-4.7-7.77-4.7a1.45,1.45,0,0,0-1.1.09l-17.3,10a1.63,1.63,0,0,0-.66.9s-.05,8.62.21,9.07l5.86,10.12a1,1,0,0,0,1.33.32l24.9-14.32a1,1,0,0,0,.39-1.3Zm-25.73,7.17s0-.52.24-.64l17.34-10a1.16,1.16,0,0,1,.62.15l6.27,4-7.21,4.14h0l-1.21.7a4.19,4.19,0,1,1-7.26,4.17l-1.21.7h0l-7.23,4.16Zm24.1,6.71-1.21.7-9.68,5.57-1.21.7-6,3.48-4.93-8.5,7.42-4.27a5.57,5.57,0,0,0,9.36-5.38l7.42-4.27,4.93,8.5ZM107.09,62.49l48.79,13.07a5.94,5.94,0,0,0,7.28-4.2l13.07-48.78a5.94,5.94,0,0,0-4.2-7.28l-5.74-1.54-.77,2.87,8.61,2.31-3.65,13.62.57-2.14L116.52,15.81l3.08-11.48,8.61,2.31L129,3.77l-5.74-1.54A5.94,5.94,0,0,0,116,6.44L102.88,55.22A5.94,5.94,0,0,0,107.09,62.49Zm8.66-43.81,54.52,14.61L159.51,73.47,105,58.86Zm14.5,37.72,8.61,2.31,2.31-8.61-8.61-2.31Zm4.41-5,2.87.77-.77,2.87-2.87-.77ZM122.05,29.6l-2.31,8.61,8.61,2.31,2.31-8.61Zm4.2,7.28-2.87-.77.77-2.87L127,34Zm10.15-3.43-2.31,8.61,8.61,2.31L145,35.75Zm4.2,7.28L137.73,40l.77-2.87,2.87.77Zm97,195.47-57.39-15.38a3,3,0,0,0-3.64,2.1l-10,37.3a3,3,0,0,0,2.1,3.64l57.39,15.38a3,3,0,0,0,3.64-2.1h0l10-37.3A3,3,0,0,0,237.64,236.19ZM178.85,226l15.56,21.64-24.3,11Zm48,50.33-2.87-.77h0L173.31,262l-3.83-1h0l2.87.77L196,249.89l5.25,7.3,8.2-3.7L224,275.59l2.87.77Zm.63-2.35-15.56-21.64,24.3-11Zm9.37-35-33.14-8.88L234,238.29l-32,16-19.68-29.88,20,5.37,34.47,9.24ZM157.67,11.46,137.58,6.08l-.77,2.87,20.09,5.38Zm23.86,154.26.78,1.37,1.38-.81-.78-1.37Zm2.34,4.1.78,1.36,1.38-.81-.78-1.36ZM250.71,20.28,230.41,0l-20.3,20.29,20.3,20.29ZM230.41,3.49l16.8,16.79-16.8,16.79-16.8-16.79Zm3.31,91.68L230,91.55l-16.62,16.28L206,100.59l-3.69,3.62,11.08,10.85Zm-3.31-81.32L224,20.28l6.43,6.43,6.44-6.43Zm-2.64,6.43,2.64-2.64,2.64,2.64-2.64,2.64Zm5.12,155a15.82,15.82,0,0,0-12.06,26.07h0l0,0a15.78,15.78,0,0,0,10.75,5.49c.41,0,.83.06,1.26.06h0c.43,0,.85,0,1.27-.06l.71-.08.34-.05h0c.44-.07.87-.15,1.3-.25h0a15.75,15.75,0,0,0,6-2.84l.06,0a15.89,15.89,0,0,0,2-1.87h0a15.81,15.81,0,0,0-11.72-26.45Zm11.09,25-.1,0c-2.67-.41-2.14-3.62-2.23-3.57s0-.66,0-.66c1.54-.89,2-3.29,2-3.29v-4.06s-.67-3.38-3.12-3.38l-2.11-.77c-2.73,0-3.29,4.15-3.29,4.15s0,2.06,0,3.8,2.08,3.68,2.08,3.68.11.7,0,.66a5.1,5.1,0,0,1-.08,2c3,2,3.6,2.53,3.87,2.88a3.76,3.76,0,0,1,.22,1,14.38,14.38,0,0,1-1.21.78,3.71,3.71,0,0,0-.51-1.53,12.14,12.14,0,0,0-6.21-3.16c-3.22-.49-2.59-4.36-2.69-4.31s0-.79,0-.79c1.85-1.08,2.12-4,2.12-4V186s-.48-4.08-3.44-4.08l-2.55-.92c-3.29,0-3.56,5-3.56,5s0,1.38,0,3.49,2.1,4.44,2.1,4.44.13.85,0,.79,1,3.64-2.25,4.14a10.85,10.85,0,0,0-2,.52,14.39,14.39,0,1,1,22.84.88Zm-57.77-26.36.78,1.36,1.38-.81-.78-1.36ZM218,130.7A28.72,28.72,0,1,0,189.32,102,28.72,28.72,0,0,0,218,130.7Zm0-54.82A26.11,26.11,0,1,1,191.93,102,26.11,26.11,0,0,1,218,75.87Zm-36.68,86.32-.78-1.36-1.38.81L180,163Zm-3.72-3.29,1.38-.81-.78-1.37-1.38.81Zm-1.14-8.44L171,153.69a1.6,1.6,0,0,0-.6,2.17l14.81,25.94a1.57,1.57,0,0,0,2.16.56l19.32-11.28a1.6,1.6,0,0,0,.6-2.17L192.45,143a1.57,1.57,0,0,0-2.16-.56l-5.52,3.22-.78-1.36-8.28,4.83Zm1.56,2.73,8.28-4.83-.78-1.36,5.52-3.22,14.81,25.94L186.57,181l-14.81-25.94,5.52-3.22ZM162.64,15.87l.77-2.87.77-2.87-2.87-.77L159,18l2.87.77Zm28.79,135-.78-1.36-11,6.44.78,1.37Zm-6.36,14.63,11-6.44-.78-1.36-11,6.44Zm4.68,8.19,11-6.44-.78-1.36-11,6.44Zm-2.34-4.1,11-6.44-.78-1.37-11,6.44Zm-4.68-8.19,11-6.44-.78-1.37L182,160Zm-161,170.53-2.87-.77L18.05,334l2.87.77Zm21-192.8-20.3-20.29L2.15,139.11l20.3,20.29Zm-20.3-16.79,16.8,16.79-16.8,16.79L5.65,139.11Zm1.55,201-2.87-.77-.77,2.87,2.87.77Zm77,19.42-4.46.46.48,4.49,4.46-.46ZM98.36,346l-.16-1.5,1.49-.15.16,1.5Zm-84.15,2.33-.77,2.87,2.87.77.77-2.87Zm5.18-7.84-2.87-.77-.77,2.87,2.87.77Zm-8.25,19.32,2.87.77.77-2.87L11.9,357Zm30-326.62h0l14.35-3.84-.77-2.87L40.33,30.35,34.95,10.26,32.08,11l6.15,23Zm74.8,308-4.46.46.48,4.49,4.46-.46Zm-2.65,3.3-.16-1.5,1.49-.15.16,1.5ZM47.36,62.3A31.19,31.19,0,1,0,9.15,40.24,31.19,31.19,0,0,0,47.36,62.3ZM32,4.86A28.27,28.27,0,1,1,12,39.42,28.24,28.24,0,0,1,32,4.86ZM28.88,139.11l-6.43-6.44L16,139.11l6.44,6.43Zm-6.43-2.64,2.64,2.64-2.64,2.64-2.64-2.64ZM104.8,349.91l.48,4.49,4.46-.46-.48-4.49Zm1.81,2.84-.16-1.5,1.49-.15.16,1.5ZM108.46,342l-4.46.46.48,4.49,4.46-.46Zm-2.65,3.3-.16-1.5,1.49-.15.16,1.5ZM16.87,361.38l23,6.15.77-2.87-23-6.15Zm80.48-10.7.48,4.5,4.46-.46-.48-4.5Zm1.81,2.84L99,352l1.49-.15.16,1.5ZM85.67,372.81a1.33,1.33,0,0,0-1.81-.49l-23,13.27a1.33,1.33,0,0,0-.49,1.81L69,402.35a1.33,1.33,0,0,0,1.81.49l23-13.27a1.33,1.33,0,0,0,.49-1.81Zm-.61,1.6,7.54,13.06-11.75-1.92Zm-1.69-.28-5,15.17-15.65-3.22ZM69.62,400.74l-7.54-13.06,11.75,1.92ZM92,389.07,71.31,401,75,389.8l4,.65,1.42-3.76L92,389.07l1.15-.66h0l-1.15.66ZM58.64,320.29l-11.48-3.08.77-2.87-17.22-4.61-.77,2.87-11.48-3.08a3,3,0,0,0-3.64,2.1L.22,366.14a3,3,0,0,0,2.1,3.64l40.18,10.76a3,3,0,0,0,3.64-2.1l14.61-54.52A3,3,0,0,0,58.64,320.29ZM43.26,377.68,3.09,366.91,17.7,312.39l11.48,3.08-.77,2.87,17.22,4.61.77-2.87,11.48,3.08ZM19.18,352.77l23,6.15.77-2.87-23-6.15Zm2.31-8.61,23,6.15.77-2.87-23-6.15Zm4.61-17.22,23,6.15.77-2.87-23-6.15Zm-2.31,8.61,23,6.15.77-2.87-23-6.15ZM132.54,92.89l-12.2,12.2a1.33,1.33,0,0,0,0,1.88l18.77,18.77a1.33,1.33,0,0,0,1.88,0l12.2-12.2a1.33,1.33,0,0,0,0-1.88L134.42,92.89A1.33,1.33,0,0,0,132.54,92.89Zm.17,1.71,1.18,11.85L122,105.26ZM140,124.8l-12.43-12.43-5.4-5.4,11.8.69.4,4,4,.4.69,11.8.94.94Zm.77-.77-1.18-11.85,11.85,1.18Zm10.49-12.37-16-.94-.94-16-.94-.94h0L145.62,106l-.29-.29ZM93.68,280.43a2.09,2.09,0,0,0-.77,2.87,2.12,2.12,0,0,0,2.89.77,2.1,2.1,0,0,0,.77-2.87A2.12,2.12,0,0,0,93.68,280.43Zm27,49.66a3,3,0,0,0-3.3-2.69l-3,.31.16,1.5,4.46-.46.64,6h0l.12,1.12-.12-1.12-28.28,2.92-.64-6,4.46-.46-.16-1.5-3,.31a3,3,0,0,0-2.65,3.3l2.74,25.47a3,3,0,0,0,3.3,2.69l25.3-2.61a3,3,0,0,0,2.65-3.3Zm-26.87,30-2.25-21,28.28-2.92,2.25,21Zm9-85a2.09,2.09,0,0,0-.77,2.87,2.12,2.12,0,0,0,2.89.77,2.09,2.09,0,0,0,.77-2.87A2.12,2.12,0,0,0,102.83,275.18Zm17.31,4.61-10.56-18.2a6.36,6.36,0,0,0-8.66-2.31L71.66,276.1a6.29,6.29,0,0,0-2.32,8.61l10.56,18.2a6.35,6.35,0,0,0,8.66,2.31l12.8-7.35,5.28,9.1L112,291.73l5.79-3.33A6.29,6.29,0,0,0,120.14,279.8Zm-3.38,6.79-7.32,4.2-3.09,11.48L102.13,295,87.5,303.4a4.24,4.24,0,0,1-5.77-1.54l-10.56-18.2a4.19,4.19,0,0,1,1.55-5.74L102,261.11a4.24,4.24,0,0,1,5.77,1.54l10.56,18.2A4.19,4.19,0,0,1,116.77,286.59Zm-32.23-.9a2.1,2.1,0,0,0-.77,2.87,2.12,2.12,0,0,0,2.89.77,2.1,2.1,0,0,0,.77-2.87A2.12,2.12,0,0,0,84.54,285.69Zm51.33,96.22-2.84-.76a1.68,1.68,0,0,1-1.19-2.06l3-11.34a1.68,1.68,0,0,1,2.06-1.18l2.84.76a1.68,1.68,0,0,1,1.19,2.05l.25-.94a2,2,0,0,0-1.44-2.41l-3.41-.91a2,2,0,0,0-2.45,1.37l-3.54,13.23a2,2,0,0,0,1.44,2.41l3.41.91a2,2,0,0,0,2.45-1.37l.25-.95A1.68,1.68,0,0,1,135.87,381.9ZM64.08,102.69v15.92c0,9,5.35,8.11,14.49,8.11s18.64-2.4,18.64-11.36v-8.48c0-8.75-5.65-9.21-14.49-9.14a14.27,14.27,0,0,1,0-4.14c-1.35-5.78.52-12.42-5-12.42s-.32,13.42-10,15.72C65.46,97.37,64.08,98.87,64.08,102.69Zm6.21-2.87c8.48-2.08,5.1-14.33,8.28-14.49,2-.1.89,5.09,2.07,10.35a16.61,16.61,0,0,0,0,4.14c7.74-.06,14.49,1.11,14.49,9.06v5.45c0,8.15-8.56,10.32-16.57,10.32s-12.42.77-12.42-7.37V106C66.16,102.55,68.3,100.24,70.3,99.82Zm66.06,277a1.26,1.26,0,1,0,.89,1.54A1.26,1.26,0,0,0,136.36,376.82ZM92.23,178.92l6.41,23.91a2,2,0,0,0,2.55,1.37l59.06-15.82a2,2,0,0,0,1.52-2.46L155.36,162c-.28-1.06-13.34-13.85-13.34-13.85a3.07,3.07,0,0,0-2.3-.42l-41,11a3.5,3.5,0,0,0-1.86,1.49S91.94,177.86,92.23,178.92Zm66.41,6.81-14.35,3.84-2.87.77-23,6.15-2.87.77-14.35,3.84L95.86,181l17.59-4.71a11.87,11.87,0,0,0,22.21-5.95l17.59-4.71Zm-60.07-23s.31-1.05.84-1.19l41.13-11a2.45,2.45,0,0,1,1.19.64l10.63,11.63-17.1,4.58h0l-2.87.77a8.91,8.91,0,0,1-17.22,4.61l-2.87.77h0l-17.16,4.6ZM112.8,326.37l-1.49.15.48,4.5,1.49-.15-.16-1.5-.16-1.5Zm-.56,22.78.48,4.49,4.46-.46-.48-4.49ZM114,352l-.16-1.5,1.49-.15.16,1.5Zm-50-249.39V101a3.27,3.27,0,0,0-3.31-3.22H55A3.27,3.27,0,0,0,51.66,101v22.51A3.27,3.27,0,0,0,55,126.72h5.8a3.27,3.27,0,0,0,3.31-3.22V121.9a2.76,2.76,0,0,1-2.76,2.76H56.49a2.76,2.76,0,0,1-2.76-2.76V102.6a2.76,2.76,0,0,1,2.76-2.76h4.83A2.76,2.76,0,0,1,64.08,102.6ZM32.71,261.95a15.84,15.84,0,1,0,19.41,11.2A15.84,15.84,0,0,0,32.71,261.95Zm7.83,29.22a14.4,14.4,0,1,1,10.19-17.64A14.4,14.4,0,0,1,40.53,291.17ZM57.87,118.44a2.07,2.07,0,1,0,2.07-2.07A2.07,2.07,0,0,0,57.87,118.44Zm41.69,210.8.16,1.5,10.42-1.08-.16-1.5Zm-2.65,3.3,1.49-.15-.48-4.49-1.49.15Zm13.39-1.38-.16-1.5h0Zm-38-131.69a32.68,32.68,0,1,0-23.11,40A32.68,32.68,0,0,0,72.33,199.48ZM61.75,229a7.72,7.72,0,0,0-1.84-2.79,25.06,25.06,0,0,0-14.07-3c-6.68.74-7.49-7.32-7.67-7.16s-.37-1.6-.37-1.6c3.12-3.14,2.1-9,2.1-9l-2-7.57s-3.13-7.87-9-6.29l-5.57-.48c-6.56,1.76-4.44,11.87-4.44,11.87s.79,2.74,1.86,7,6.56,7.74,6.56,7.74.72,1.62.48,1.57,3.89,6.75-2.27,9.45a22.44,22.44,0,0,0-3.71,2.1,29.71,29.71,0,1,1,46-10.46l-.22,0c-5.54.61-6.21-6.07-6.36-5.93s-.31-1.32-.31-1.32c2.59-2.6,2.28-7.63,2.28-7.63L61,197.33s-3.14-6.38-8-5.07l-4.62-.4c-5.44,1.46-4.35,10-4.35,10s1.14,4.09,2,7.59,6.11,6.24,6.11,6.24.59,1.34.4,1.3a10.55,10.55,0,0,1,.93,4.09c7.12,2.29,8.53,3.13,9.26,3.68a7.85,7.85,0,0,1,1,2Q62.81,227.9,61.75,229ZM35.18,281l-5-2.8-1.45,2.45,7.45,4.2,8-13.5L41.71,270Z" transform="translate(-0.11 0.01)" fill="rgba(255,255,255,0.05)" fill-rule="evenodd"/>
</svg>
